<?xml version="1.0" encoding="utf-8"?>
<svg viewBox="27.642 31.881 45.767 38.793" xmlns="http://www.w3.org/2000/svg">
  <g>
    <circle style="fill: rgba(255, 251, 0, 0.32);" cx="41.002" cy="47.455" r="1.244"/>
    <circle style="fill: rgba(255, 251, 0, 0.32);" cx="51.602" cy="41.852" r="1.122"/>
    <circle style="fill: rgba(255, 251, 0, 0.32);" cx="63.803" cy="52.084" r="1.122"/>
    <circle style="fill: rgba(255, 251, 0, 0.32);" cx="57.147" cy="59.896" r="1.122"/>
    <circle style="fill: rgba(255, 251, 0, 0.32);" cx="58.012" cy="49.64" r="1.244"/>
    <circle style="fill: rgba(255, 251, 0, 0.32);" cx="63.937" cy="39.812" r="1.122"/>
    <circle style="fill: rgba(255, 251, 0, 0.32);" cx="41.138" cy="63.605" r="1.122"/>
    <circle style="fill: rgba(255, 251, 0, 0.32);" cx="34.503" cy="41.985" r="1.122"/>
    <circle style="fill: rgba(255, 251, 0, 0.32);" cx="43.28" cy="36.429" r="1.122"/>
    <circle style="fill: rgba(255, 251, 0, 0.32);" cx="57.701" cy="33.003" r="1.122"/>
    <circle style="fill: rgba(255, 251, 0, 0.32);" cx="72.287" cy="45.442" r="1.122"/>
    <circle style="fill: rgba(255, 251, 0, 0.32);" cx="54.442" cy="41.708" r="1.244"/>
    <circle style="fill: rgba(255, 251, 0, 0.32);" cx="50.306" cy="57.939" r="1.122"/>
    <circle style="fill: rgba(255, 251, 0, 0.32);" cx="44.915" cy="45.438" r="1.122"/>
    <circle style="fill: rgba(255, 251, 0, 0.32);" cx="52.694" cy="65.386" r="1.122"/>
    <circle style="fill: rgba(255, 251, 0, 0.32);" cx="68.339" cy="53.612" r="1.244"/>
    <circle style="fill: rgba(255, 251, 0, 0.32);" cx="34.652" cy="54.055" r="1.122"/>
    <circle style="fill: rgba(255, 251, 0, 0.32);" cx="39.69" cy="51.451" r="1.122"/>
    <circle style="fill: rgba(255, 251, 0, 0.32);" cx="69.407" cy="58.933" r="1.122"/>
    <circle style="fill: rgba(255, 251, 0, 0.32);" cx="28.764" cy="54.923" r="1.122"/>
    <circle style="fill: rgba(255, 251, 0, 0.32);" cx="37.635" cy="65.704" r="1.122"/>
    <circle style="fill: rgba(255, 251, 0, 0.32);" cx="61.209" cy="69.552" r="1.122"/>
    <circle style="fill: rgba(255, 251, 0, 0.32);" cx="48.621" cy="51.408" r="1.244"/>
    <circle style="fill: rgba(255, 251, 0, 0.32);" cx="52.912" cy="52.869" r="1.244"/>
    <circle style="fill: rgba(255, 251, 0, 0.32);" cx="60.163" cy="37.142" r="1.244"/>
    <circle style="fill: rgba(255, 251, 0, 0.32);" cx="37.155" cy="33.429" r="1.244"/>
  </g>
</svg>