<?xml version="1.0" encoding="utf-8"?>
<svg viewBox="41.947 38.592 25.973 22.386" xmlns="http://www.w3.org/2000/svg">
  <g transform="matrix(1, 0, 0, 1, 3.616783, -2.196708)">
    <circle style="fill: rgba(255, 251, 0, 0.66);" cx="48.248" cy="55.915" r="0.385"/>
    <circle style="fill: rgba(255, 251, 0, 0.66);" cx="47.822" cy="51.224" r="0.385"/>
    <circle style="fill: rgba(255, 251, 0, 0.66);" cx="49.76" cy="51.999" r="0.385"/>
    <circle style="fill: rgba(255, 251, 0, 0.66);" cx="44.111" cy="56.283" r="0.385"/>
    <circle style="fill: rgba(255, 251, 0, 0.66);" cx="53.019" cy="46.564" r="0.385"/>
    <circle style="fill: rgba(255, 251, 0, 0.66);" cx="63.918" cy="53.314" r="0.385"/>
    <circle style="fill: rgba(255, 251, 0, 0.66);" cx="47.96" cy="48.617" r="0.385"/>
    <circle style="fill: rgba(255, 251, 0, 0.66);" cx="49.588" cy="50.205" r="0.385"/>
    <circle style="fill: rgba(255, 251, 0, 0.66);" cx="55.005" cy="48.746" r="0.385"/>
    <circle style="fill: rgba(255, 251, 0, 0.66);" cx="53.508" cy="53.781" r="0.385"/>
    <circle style="fill: rgba(255, 251, 0, 0.66);" cx="50.214" cy="57.999" r="0.385"/>
    <circle style="fill: rgba(255, 251, 0, 0.66);" cx="56.573" cy="55.583" r="0.385"/>
    <circle style="fill: rgba(255, 251, 0, 0.66);" cx="57.674" cy="54.97" r="0.385"/>
    <circle style="fill: rgba(255, 251, 0, 0.66);" cx="52.746" cy="56.419" r="0.385"/>
    <circle style="fill: rgba(255, 251, 0, 0.66);" cx="52.904" cy="52.425" r="0.385"/>
    <circle style="fill: rgba(255, 251, 0, 0.66);" cx="54.625" cy="42.424" r="0.385"/>
    <circle style="fill: rgba(255, 251, 0, 0.66);" cx="56.601" cy="50.483" r="0.385"/>
    <circle style="fill: rgba(255, 251, 0, 0.66);" cx="56.716" cy="46.624" r="0.385"/>
    <circle style="fill: rgba(255, 251, 0, 0.66);" cx="59.138" cy="49.791" r="0.385"/>
    <circle style="fill: rgba(255, 251, 0, 0.66);" cx="59.297" cy="53.033" r="0.385"/>
    <circle style="fill: rgba(255, 251, 0, 0.66);" cx="57.505" cy="48.749" r="0.385"/>
    <circle style="fill: rgba(255, 251, 0, 0.66);" cx="56.661" cy="52.83" r="0.385"/>
    <circle style="fill: rgba(255, 251, 0, 0.66);" cx="46.221" cy="42.037" r="0.385"/>
    <circle style="fill: rgba(255, 251, 0, 0.66);" cx="42.145" cy="41.174" r="0.385"/>
    <circle style="fill: rgba(255, 251, 0, 0.66);" cx="41.354" cy="48.881" r="0.385"/>
    <circle style="fill: rgba(255, 251, 0, 0.66);" cx="38.715" cy="55.393" r="0.385"/>
    <circle style="fill: rgba(255, 251, 0, 0.66);" cx="51.535" cy="45.495" r="0.385"/>
    <circle style="fill: rgba(255, 251, 0, 0.66);" cx="43.154" cy="44.167" r="0.385"/>
    <circle style="fill: rgba(255, 251, 0, 0.66);" cx="44.033" cy="53.289" r="0.385"/>
    <circle style="fill: rgba(255, 251, 0, 0.66);" cx="60.608" cy="44.65" r="0.385"/>
    <circle style="fill: rgba(255, 251, 0, 0.66);" cx="47.688" cy="53.808" r="0.385"/>
    <circle style="fill: rgba(255, 251, 0, 0.66);" cx="54.003" cy="50.284" r="0.385"/>
    <circle style="fill: rgba(255, 251, 0, 0.66);" cx="54.3" cy="62.79" r="0.385"/>
    <circle style="fill: rgba(255, 251, 0, 0.66);" cx="50.618" cy="47.503" r="0.385"/>
    <circle style="fill: rgba(255, 251, 0, 0.66);" cx="59.685" cy="56.519" r="0.385"/>
    <circle style="fill: rgba(255, 251, 0, 0.66);" cx="51.852" cy="48.536" r="0.385"/>
    <circle style="fill: rgba(255, 251, 0, 0.66);" cx="46.629" cy="46.426" r="0.385"/>
    <circle style="fill: rgba(255, 251, 0, 0.66);" cx="58.31" cy="47.078" r="0.385"/>
    <circle style="fill: rgba(255, 251, 0, 0.66);" cx="51.297" cy="54.76" r="0.385"/>
  </g>
</svg>