<?xml version="1.0" encoding="utf-8"?>
<svg viewBox="36.666 37.148 31.148 26.032" xmlns="http://www.w3.org/2000/svg">
  <g transform="matrix(1, 0, 0, 1, 1.046777, -1.333039)">
    <circle style="fill: rgba(255, 251, 0, 0.50);" cx="44.882" cy="47.658" r="0.835"/>
    <circle style="fill: rgba(255, 251, 0, 0.50);" cx="52.133" cy="45.172" r="0.753"/>
    <circle style="fill: rgba(255, 251, 0, 0.50);" cx="60.321" cy="52.038" r="0.753"/>
    <circle style="fill: rgba(255, 251, 0, 0.50);" cx="55.854" cy="57.28" r="0.753"/>
    <circle style="fill: rgba(255, 251, 0, 0.50);" cx="55.41" cy="50.758" r="0.835"/>
    <circle style="fill: rgba(255, 251, 0, 0.50);" cx="60.411" cy="43.803" r="0.753"/>
    <circle style="fill: rgba(255, 251, 0, 0.50);" cx="46.856" cy="60.018" r="0.753"/>
    <circle style="fill: rgba(255, 251, 0, 0.50);" cx="40.244" cy="46.005" r="0.753"/>
    <circle style="fill: rgba(255, 251, 0, 0.50);" cx="46.549" cy="41.533" r="0.753"/>
    <circle style="fill: rgba(255, 251, 0, 0.50);" cx="56.226" cy="39.234" r="0.753"/>
    <circle style="fill: rgba(255, 251, 0, 0.50);" cx="66.014" cy="47.581" r="0.753"/>
    <circle style="fill: rgba(255, 251, 0, 0.50);" cx="55.811" cy="46.432" r="0.835"/>
    <circle style="fill: rgba(255, 251, 0, 0.50);" cx="50.128" cy="54.499" r="0.753"/>
    <circle style="fill: rgba(255, 251, 0, 0.50);" cx="47.646" cy="47.578" r="0.753"/>
    <circle style="fill: rgba(255, 251, 0, 0.50);" cx="53.198" cy="59.829" r="0.753"/>
    <circle style="fill: rgba(255, 251, 0, 0.50);" cx="55.979" cy="52.561" r="0.835"/>
    <circle style="fill: rgba(255, 251, 0, 0.50);" cx="41.614" cy="54.852" r="0.753"/>
    <circle style="fill: rgba(255, 251, 0, 0.84);" cx="44.14" cy="51.613" r="0.753"/>
    <circle style="fill: rgba(255, 251, 0, 0.50);" cx="64.081" cy="56.634" r="0.753"/>
    <circle style="fill: rgba(255, 251, 0, 0.50);" cx="36.372" cy="54.525" r="0.753"/>
    <circle style="fill: rgba(255, 251, 0, 0.50);" cx="43.176" cy="61.676" r="0.753"/>
    <circle style="fill: rgba(255, 251, 0, 0.50);" cx="58.58" cy="63.76" r="0.753"/>
  </g>
</svg>