<?xml version="1.0" encoding="utf-8"?>
<svg viewBox="-1.746 8.276 106.901 92.159" xmlns="http://www.w3.org/2000/svg">
  <defs>
    <radialGradient gradientUnits="userSpaceOnUse" cx="52.332" cy="52.385" r="44.154" id="gradient-0" gradientTransform="matrix(1.106628, 0.06958, 0.065383, -1.134267, -9.632072, 113.285243)">
      <stop offset="0" style="stop-color: rgb(255, 162, 96);"/>
      <stop offset="1" style="stop-color: rgb(255, 0, 149);"/>
    </radialGradient>
  </defs>
  <path style="fill: url(#gradient-0);" d="M 22.527 64.917 L 12.359 79.843 L 39.009 65.392 L 27.464 91.507 L 43.015 71.044 L 46.213 93.579 L 54.053 67.156 L 65.576 90.086 C 65.576 90.086 64.267 72.445 64.267 73.007 C 64.267 73.57 77.752 80.452 77.752 80.452 L 71.426 65.816 C 71.426 65.816 92.611 72.56 92.796 72.56 C 92.981 72.56 86.162 60.615 86.162 60.422 C 86.162 60.229 99.745 59.265 99.745 59.265 C 99.745 59.265 82.664 49.488 82.479 50.837 C 82.294 52.186 92.471 37.83 92.471 37.83 C 92.471 37.83 76.045 39.695 76.045 39.952 C 76.045 40.208 75.945 21.364 75.945 21.364 L 62.07 41.78 L 61.759 15.131 C 61.759 15.131 52.898 41.209 52.898 42.366 C 52.898 43.522 44.545 23.595 44.545 23.226 C 44.545 22.856 43.623 40.308 43.623 40.308 L 29.416 21.436 L 33.069 38.818 C 33.069 38.818 18.906 34.953 18.906 35.082 C 18.906 35.21 31.346 49.799 31.17 49.799 C 30.994 49.799 11.152 47.222 10.967 47.222 C 10.782 47.222 26.664 56.607 26.849 56.607 C 27.034 56.607 3.665 62.131 3.665 62.131 L 22.527 64.917 Z" transform="matrix(0.988348, 0.152214, -0.152214, 0.988348, 8.876078, -7.236854)"/>
  <g transform="matrix(1, 0, 0, 1, 1, -1)">
    <path style="fill: none; stroke-width: 2px; stroke: rgb(136, 0, 255); stroke-linecap: round;" d="M 14.991 89.442 C 18.696 87.2 22.396 84.886 26.092 82.499 C 29.644 80.206 29.783 75.382 26.512 68.028 C 23.89 62.13 28.048 58.095 38.988 55.925" transform="matrix(0.999961, 0.0088, -0.0088, 0.999961, 0.64066, -0.234693)"/>
    <path id="path4" d="M 37.329 56.946 L 37.929 60.315 C 37.986 60.636 37.758 60.886 37.051 61.065 L 34.117 61.793 C 33.867 62.072 33.789 62.821 34.003 62.871 C 34.003 62.871 36.387 62.65 37.629 62.543 C 37.922 62.514 38.372 62.093 38.386 61.786 L 38.543 57.71 Z M 35.23 60.993 L 34.388 56.774 L 34.702 56.703 L 35.609 60.801 C 35.666 61.051 37.629 60.665 37.58 60.394 L 36.644 55.111 C 36.594 54.833 36.009 53.776 35.802 53.805 L 34.696 53.976 C 34.424 54.019 34.353 54.325 33.974 54.397 C 33.639 54.461 33.196 53.669 32.896 53.733 L 31.79 53.983 C 31.483 54.054 31.468 54.74 31.133 54.833 C 30.79 54.933 30.569 54.647 30.327 54.718 L 29.463 54.969 C 29.113 55.068 29.105 55.875 28.77 56.018 C 28.463 56.146 28.199 55.925 27.971 56.075 L 27.264 56.539 C 27.099 56.639 27.185 57.788 27.271 58.01 L 28.591 61.693 C 28.663 61.893 30.133 61.543 30.083 61.35 L 29.162 57.924 L 29.476 57.852 L 30.583 61.921 C 30.64 62.143 32.532 61.743 32.482 61.521 C 32.175 60.143 31.568 57.396 31.568 57.396 L 31.882 57.324 L 32.86 61.514 C 32.917 61.743 35.287 61.258 35.23 60.993 Z" style="fill: rgb(94, 255, 118);"/>
    <line style="stroke-linecap: round; stroke: rgb(84, 241, 255);" x1="40.889" y1="55.668" x2="48.045" y2="51.642"/>
    <line style="stroke-linecap: round; stroke: rgb(84, 241, 255);" x1="40.908" y1="55.734" x2="47.873" y2="58.719"/>
    <circle style="fill: rgb(136, 0, 255);" cx="39.817" cy="55.801" r="1.559"/>
    <path style="fill: none; stroke-width: 2px; stroke: rgb(136, 0, 255); stroke-linecap: round;" d="M 68.607 56.355 C 72.303 58.393 75.995 60.497 79.682 62.667 C 83.225 64.752 83.364 69.138 80.101 75.824 C 77.485 81.187 81.633 84.855 92.547 86.828" transform="matrix(-0.997968, 0.063721, -0.063721, -0.997968, 165.552127, 137.903066)"/>
    <path id="path-1" d="M 79.316 60.86 L 79.915 57.49 C 79.973 57.169 79.744 56.919 79.037 56.741 L 76.103 56.013 C 75.854 55.734 75.775 54.985 75.989 54.935 C 75.989 54.935 78.374 55.156 79.616 55.263 C 79.908 55.292 80.358 55.713 80.373 56.02 L 80.529 60.096 Z M 77.217 56.812 L 76.374 61.031 L 76.689 61.103 L 77.595 57.005 C 77.653 56.755 79.616 57.14 79.566 57.412 L 78.631 62.694 C 78.581 62.973 77.995 64.029 77.788 64.001 L 76.682 63.83 C 76.41 63.787 76.339 63.48 75.961 63.408 C 75.625 63.344 75.182 64.137 74.883 64.072 L 73.776 63.823 C 73.469 63.751 73.455 63.066 73.119 62.973 C 72.777 62.873 72.555 63.159 72.313 63.087 L 71.449 62.837 C 71.099 62.737 71.092 61.931 70.756 61.788 C 70.45 61.659 70.185 61.881 69.957 61.731 L 69.25 61.267 C 69.086 61.167 69.171 60.017 69.257 59.796 L 70.577 56.112 C 70.649 55.913 72.12 56.263 72.069 56.455 L 71.149 59.882 L 71.463 59.953 L 72.569 55.884 C 72.626 55.663 74.518 56.063 74.468 56.284 C 74.161 57.662 73.554 60.41 73.554 60.41 L 73.869 60.482 L 74.847 56.291 C 74.904 56.063 77.274 56.548 77.217 56.812 Z" style="fill: rgb(94, 255, 118);" transform="matrix(-0.997814, -0.066079, 0.066079, -0.997814, 145.59011, 123.82628)"/>
    <line style="stroke-linecap: round; stroke: rgb(84, 241, 255);" x1="58.866" y1="52.484" x2="66.022" y2="56.51" transform="matrix(-0.993599, -0.112967, 0.112967, -0.993599, 118.331925, 115.699259)"/>
    <line style="stroke-linecap: round; stroke: rgb(84, 241, 255);" x1="58.634" y1="59.547" x2="65.599" y2="56.562" transform="matrix(-0.993599, -0.112967, 0.112967, -0.993599, 117.277135, 122.754491)"/>
    <circle style="fill: rgb(136, 0, 255);" cx="66.827" cy="57.032" r="1.559"/>
    <line style="stroke-linecap: round; stroke: rgb(84, 241, 255);" x1="53.156" y1="61.164" x2="57.93" y2="48.892" transform="matrix(0.99954, -0.030312, 0.030312, 0.99954, -1.642487, 1.708906)"/>
  </g>
</svg>