<?xml version="1.0" encoding="utf-8"?>
<svg viewBox="20.477 23.054 61.404 52.935" xmlns="http://www.w3.org/2000/svg">
  <defs>
    <radialGradient gradientUnits="userSpaceOnUse" cx="52.332" cy="52.385" r="44.154" id="gradient-0" gradientTransform="matrix(0.635645, 0.039967, 0.037556, -0.651521, 15.946786, 83.370947)">
      <stop offset="0" style="stop-color: rgb(255, 162, 96);"/>
      <stop offset="1" style="stop-color: rgb(255, 0, 149);"/>
    </radialGradient>
  </defs>
  <path style="fill: url(#gradient-0);" d="M 34.419 55.589 L 28.579 64.162 L 40.211 57.977 L 37.255 70.862 L 47.011 57.53 L 48.025 72.052 L 52.464 59.458 L 59.147 70.046 C 59.147 70.046 58.395 59.913 58.395 60.236 C 58.395 60.559 66.141 64.512 66.141 64.512 L 62.507 56.105 C 62.507 56.105 74.676 59.979 74.782 59.979 C 74.888 59.979 70.971 53.118 70.971 53.007 C 70.971 52.896 78.773 52.342 78.773 52.342 C 78.773 52.342 68.962 46.726 68.856 47.501 C 68.749 48.276 74.595 40.03 74.595 40.03 C 74.595 40.03 65.16 41.101 65.16 41.249 C 65.16 41.396 65.103 30.572 65.103 30.572 L 57.133 42.299 L 56.954 26.992 C 56.954 26.992 51.864 41.971 51.864 42.635 C 51.864 43.299 47.066 31.853 47.066 31.641 C 47.066 31.429 46.537 41.453 46.537 41.453 L 38.376 30.613 L 40.475 40.597 C 40.475 40.597 32.339 38.377 32.339 38.451 C 32.339 38.525 39.485 46.905 39.384 46.905 C 39.283 46.905 27.886 45.425 27.779 45.425 C 27.673 45.425 36.796 50.815 36.902 50.815 C 37.008 50.815 23.585 53.988 23.585 53.988 L 34.419 55.589 Z" transform="matrix(0.988348, 0.152214, -0.152214, 0.988348, 8.134299, -7.213106)"/>
  <g transform="matrix(0.574398, 0, 0, 0.574398, 21.427324, 17.509392)" style="">
    <text style="fill: rgb(0, 236, 240); font-family: Oswald; stroke-linecap: round; white-space: pre;" x="39.54" y="59.514">&lt;</text>
    <text transform="matrix(0.997814, 0.066079, -0.066079, 0.997814, 2.49672, 2.023932)" style="fill: rgb(0, 236, 240); font-family: Oswald; stroke-linecap: round; white-space: pre;" x="55.163" y="54.462">/&gt;</text>
    <path style="fill: none; stroke-width: 2px; stroke: rgb(136, 0, 255); stroke-linecap: round;" d="M 14.991 89.442 C 18.696 87.2 22.396 84.886 26.092 82.499 C 29.644 80.206 29.783 75.382 26.512 68.028 C 23.89 62.13 28.048 58.095 38.988 55.925" transform="matrix(0.999961, 0.0088, -0.0088, 0.999961, 0.64066, -0.234693)"/>
    <path id="path4" d="M 37.329 56.946 L 37.929 60.315 C 37.986 60.636 37.758 60.886 37.051 61.065 L 34.117 61.793 C 33.867 62.072 33.789 62.821 34.003 62.871 C 34.003 62.871 36.387 62.65 37.629 62.543 C 37.922 62.514 38.372 62.093 38.386 61.786 L 38.543 57.71 Z M 35.23 60.993 L 34.388 56.774 L 34.702 56.703 L 35.609 60.801 C 35.666 61.051 37.629 60.665 37.58 60.394 L 36.644 55.111 C 36.594 54.833 36.009 53.776 35.802 53.805 L 34.696 53.976 C 34.424 54.019 34.353 54.325 33.974 54.397 C 33.639 54.461 33.196 53.669 32.896 53.733 L 31.79 53.983 C 31.483 54.054 31.468 54.74 31.133 54.833 C 30.79 54.933 30.569 54.647 30.327 54.718 L 29.463 54.969 C 29.113 55.068 29.105 55.875 28.77 56.018 C 28.463 56.146 28.199 55.925 27.971 56.075 L 27.264 56.539 C 27.099 56.639 27.185 57.788 27.271 58.01 L 28.591 61.693 C 28.663 61.893 30.133 61.543 30.083 61.35 L 29.162 57.924 L 29.476 57.852 L 30.583 61.921 C 30.64 62.143 32.532 61.743 32.482 61.521 C 32.175 60.143 31.568 57.396 31.568 57.396 L 31.882 57.324 L 32.86 61.514 C 32.917 61.743 35.287 61.258 35.23 60.993 Z" style="fill: rgb(94, 255, 118); stroke-linecap: round;"/>
    <circle style="fill: rgb(136, 0, 255); stroke-linecap: round;" cx="39.817" cy="55.801" r="1.559"/>
    <path style="fill: none; stroke-width: 2px; stroke: rgb(136, 0, 255); stroke-linecap: round;" d="M 68.607 56.355 C 72.303 58.393 75.995 60.497 79.682 62.667 C 83.225 64.752 83.364 69.138 80.101 75.824 C 77.485 81.187 81.633 84.855 92.547 86.828" transform="matrix(-0.997968, 0.063721, -0.063721, -0.997968, 165.552127, 137.903066)"/>
    <path id="path-1" d="M 79.316 60.86 L 79.915 57.49 C 79.973 57.169 79.744 56.919 79.037 56.741 L 76.103 56.013 C 75.854 55.734 75.775 54.985 75.989 54.935 C 75.989 54.935 78.374 55.156 79.616 55.263 C 79.908 55.292 80.358 55.713 80.373 56.02 L 80.529 60.096 Z M 77.217 56.812 L 76.374 61.031 L 76.689 61.103 L 77.595 57.005 C 77.653 56.755 79.616 57.14 79.566 57.412 L 78.631 62.694 C 78.581 62.973 77.995 64.029 77.788 64.001 L 76.682 63.83 C 76.41 63.787 76.339 63.48 75.961 63.408 C 75.625 63.344 75.182 64.137 74.883 64.072 L 73.776 63.823 C 73.469 63.751 73.455 63.066 73.119 62.973 C 72.777 62.873 72.555 63.159 72.313 63.087 L 71.449 62.837 C 71.099 62.737 71.092 61.931 70.756 61.788 C 70.45 61.659 70.185 61.881 69.957 61.731 L 69.25 61.267 C 69.086 61.167 69.171 60.017 69.257 59.796 L 70.577 56.112 C 70.649 55.913 72.12 56.263 72.069 56.455 L 71.149 59.882 L 71.463 59.953 L 72.569 55.884 C 72.626 55.663 74.518 56.063 74.468 56.284 C 74.161 57.662 73.554 60.41 73.554 60.41 L 73.869 60.482 L 74.847 56.291 C 74.904 56.063 77.274 56.548 77.217 56.812 Z" style="fill: rgb(94, 255, 118); stroke-linecap: round;" transform="matrix(-0.997814, -0.066079, 0.066079, -0.997814, 145.59011, 123.82628)"/>
    <circle style="fill: rgb(136, 0, 255); stroke-linecap: round;" cx="66.827" cy="57.032" r="1.559"/>
  </g>
</svg>